<?xml version="1.0" encoding="utf-8"?>
<!-- Generator: Adobe Illustrator 23.0.3, SVG Export Plug-In . SVG Version: 6.00 Build 0)  -->
<svg version="1.1" id="Layer_1" xmlns="http://www.w3.org/2000/svg" xmlns:xlink="http://www.w3.org/1999/xlink" x="0px" y="0px"
	 viewBox="0 0 1366 768" style="enable-background:new 0 0 1366 768;" xml:space="preserve">
<style type="text/css">
	.st0{fill:#FFFFFF;}
	.st1{font-family:'MyriadPro-Regular';}
	.st2{font-size:69.9172px;}
</style>
<rect width="1366" height="768"/>
<text transform="matrix(6.123234e-17 1 -1 6.123234e-17 185.0303 0.2532)"><tspan x="0" y="0" class="st0 st1 st2">with light hearts</tspan><tspan x="0" y="83.9" class="st0 st1 st2">my path has vanished</tspan><tspan x="0" y="167.8" class="st0 st1 st2">powdery snow</tspan></text>
<text transform="matrix(6.123234e-17 1 -1 6.123234e-17 465.5303 0.2532)"><tspan x="0" y="0" class="st0 st1 st2">with light hearts</tspan><tspan x="0" y="83.9" class="st0 st1 st2">my path has vanished</tspan><tspan x="0" y="167.8" class="st0 st1 st2">powdery snow</tspan></text>
<text transform="matrix(6.123234e-17 1 -1 6.123234e-17 746.0312 0.2532)"><tspan x="0" y="0" class="st0 st1 st2">with light hearts</tspan><tspan x="0" y="83.9" class="st0 st1 st2">my path has vanished</tspan><tspan x="0" y="167.8" class="st0 st1 st2">powdery snow</tspan></text>
<text transform="matrix(6.123234e-17 1 -1 6.123234e-17 1026.5312 0.2532)"><tspan x="0" y="0" class="st0 st1 st2">with light hearts</tspan><tspan x="0" y="83.9" class="st0 st1 st2">my path has vanished</tspan><tspan x="0" y="167.8" class="st0 st1 st2">powdery snow</tspan></text>
<text transform="matrix(6.123234e-17 1 -1 6.123234e-17 1307.0312 0.2532)"><tspan x="0" y="0" class="st0 st1 st2">with light hearts</tspan><tspan x="0" y="83.9" class="st0 st1 st2">my path has vanished</tspan><tspan x="0" y="167.8" class="st0 st1 st2">powdery snow</tspan></text>
</svg>
