<?xml version="1.0" encoding="utf-8"?>
<!-- Generator: Adobe Illustrator 23.0.3, SVG Export Plug-In . SVG Version: 6.00 Build 0)  -->
<svg version="1.1" id="Layer_1" xmlns="http://www.w3.org/2000/svg" xmlns:xlink="http://www.w3.org/1999/xlink" x="0px" y="0px"
	 viewBox="0 0 1366 768" style="enable-background:new 0 0 1366 768;" xml:space="preserve">
<style type="text/css">
	.st0{fill:#FF0000;}
	.st1{fill:#FFFFFF;}
</style>
<path class="st0" d="M444.12,710.91c-20.08-14.17-43.3-23.97-66.77-30.95c-20.2-6.03-43.66-12.17-64.92-9.47l-65.77,47.82
	c0,0-14.93,12.59,1.45,12.59c23.7,3.35,47.05,9.55,69.63,17.32c16.25,5.59,32.65,11.95,48.18,19.78h132.33
	c-1.66-2.37-3.34-4.69-5.02-6.98C479.43,742.18,463.28,724.44,444.12,710.91z"/>
<path class="st0" d="M192.72,757.54L178.33,768H288.2C257.77,759.3,224.38,752.63,192.72,757.54z"/>
<path class="st0" d="M197.1,634.67c0.17-17.16-0.68-34.36-2.73-51.39c-1.66-13.69-3.8-27.73-8.69-40.69
	c-11.34-30.07-30.53-58.1-50.54-83.02c-10.42-12.98-21.67-25.37-34.04-36.52c-11.08-10-22.95-17.67-35.68-25.28H0v77.84
	c37.53,44.63,66.05,96.49,75.08,154.66c7.02,45.24,7.21,92.72-2.66,137.73h58.71l48.94-35.58
	C193.5,702.19,196.77,667.4,197.1,634.67z"/>
<path class="st0" d="M683.46,697.28h-0.02h-0.09c-34.63,0.03-73.47,11.88-99.09,36L573,768h55.77c18.01-4.37,36.42-6.84,54.64-6.88
	h0.17c18.3,0.01,36.76,2.51,54.82,6.88h54.66l-11.67-35.95C755.57,708.82,717.74,697.26,683.46,697.28z"/>
<path class="st0" d="M903.25,690.19c29.47-21.94,65.7-36.33,101.9-43.6c13.07-2.62,0.6-10.91,0.6-10.91l-37.88-27.54
	c-35.45-4.14-74,9.38-102.2,30.44c-27.26,20.37-51,52.19-57.47,86.12L822.24,768h13.15C852.84,738.26,875.8,710.63,903.25,690.19z"
	/>
<path class="st0" d="M558.28,723.47c-7.28-33.97-31.16-65.58-58.96-85.69c-28.23-20.43-67.04-33.8-102.14-28.9l-34.96,25.42
	c0,0-13.22,11.06,2.59,13.62c34.47,7.39,68.74,21.11,97.08,41.57c28.18,20.42,58.58,45.35,69.63,78.51h11.98
	c1.13-2.49,1.82-4.62,1.82-4.62L558.28,723.47z"/>
<path class="st0" d="M75.41,368.23c27.74-17.51,50.21-43.4,69.32-69.72c16.92-23.3,34.69-49.76,42.43-77.81
	c8.48-30.69,9.42-64.4,7.96-96.02c-0.78-17.05-2.63-34.11-6.2-50.81c-1.75-8.22-3.94-16.37-6.74-24.3
	c-2.2-6.22-5.75-12.06-7.72-18.29L131.42,0H68.25c9.28,45.71,12.05,93.06,5.63,138.83C65.61,197.81,37.56,250.45,0,295.92v74.1
	h72.48C73.47,369.43,74.44,368.84,75.41,368.23z"/>
<path class="st0" d="M920.79,56.06c19.84,14.41,42.96,24.35,66.3,31.51c20.62,6.32,44.17,12.47,65.92,10.18L1120.06,49
	c0,0,12.29-10.06-4.66-12.09c-22.76-2.72-45-9.49-66.62-16.94c-16.36-5.64-32.87-12.06-48.49-19.97H868.24
	c1.27,1.81,2.54,3.61,3.81,5.37C885.72,24.34,901.76,42.3,920.79,56.06z"/>
<path class="st0" d="M807.99,43.69c6.95,34.27,31.09,66.26,59.02,86.5c28.11,20.39,66.39,33.54,101.35,29.1l36.45-26.5
	c0,0,11.55-12.33-1.86-12.33c-34.94-7.43-69.68-21.11-98.46-41.94c-27.93-20.28-54-46.55-68.93-77.95c-0.1-0.2-0.19-0.38-0.29-0.57
	h-12.78c-0.57,1-0.89,1.72-0.89,1.72L807.99,43.69z"/>
<path class="st0" d="M1117.33,730.29c13.3-3.06,2.23-11.88,2.23-11.88l-67.17-48.83c-22.96-1.97-47.62,4.67-69.25,11.69
	c-22.43,7.28-44.55,17.2-63.54,31.35c-19.8,14.75-36.39,33.9-50.37,54.15c-0.28,0.41-0.56,0.82-0.84,1.23h130.93
	c15.23-7.8,31.43-14.05,47.2-19.61C1069.45,740.29,1093.57,735.76,1117.33,730.29z"/>
<path class="st0" d="M1172.46,10.9L1187.45,0h-109.87C1107.89,8.79,1140.9,15.39,1172.46,10.9z"/>
<path class="st0" d="M254.12,36.3c-17.18,3.69-2.42,16.85-2.42,16.85l61.4,44.64c22.56,2.32,47.06-4.27,68.36-11
	c22.47-7.1,44.69-16.82,63.82-30.73c19.96-14.45,36.67-33.46,50.77-53.54c0.58-0.83,1.16-1.67,1.75-2.51H366.04
	c-15.51,7.85-31.95,14.14-48.05,19.73C297.25,26.92,275.65,31.68,254.12,36.3z"/>
<path class="st0" d="M288.5,0H178.61l14.99,10.9C225.15,15.39,258.15,8.84,288.5,0z"/>
<path class="st0" d="M463.12,77.39c-28.92,21.49-63.53,43.03-99.8,43.03c-14.44,0-0.1,13.81-0.1,13.81l34.47,25.07
	c35.59,4.53,74.62-9.14,102.96-30.26c27.15-20.24,50.61-51.67,57.42-85.32l-13.6-41.93c0,0-0.49-0.76-1.3-1.78h-12.33
	C513.38,29.58,490.51,57.04,463.12,77.39z"/>
<path class="st0" d="M683.03,70.51c34.48,0.02,72.82-11.69,98.56-35.37L792.99,0h-56.02c-17.79,4.24-35.94,6.65-53.94,6.68
	C664.44,6.66,645.52,4.41,627.12,0h-54.05l11.4,35.13C610.2,58.81,648.55,70.52,683.03,70.51z"/>
<path class="st0" d="M1046.62,370.02h45.14c0,0,16.05-0.22,6.51-9.76c-25.79-25.8-45.37-59.09-56.69-93.57
	c-10.57-32.43-16.42-68.55-10.16-102.34c2.05-11.05-10.82-8.74-10.82-8.74l-36.97,26.87c-14.93,33.56-13.4,75.68-0.78,109.64
	C994.36,323.06,1017,354.28,1046.62,370.02z"/>
<path class="st0" d="M987.69,397.77h-49.49c-20.73,12.14-31.63,33.67-38.75,55.8c-7.46,23.13-10.99,47.98,0.09,70.58l39.37,28.63
	c0,0,10.26,7.59,8.1-5.97c-8.07-50.47,8.28-103.69,44.11-139.52C1000.46,397.95,987.69,397.77,987.69,397.77z"/>
<path class="st0" d="M549.75,568.08c-19.41-14.06-41.75-25.16-66.34-21.89l-35.89,26.09c0,0-13.18,8.9,1.27,12.76
	c47.12,11.09,88.43,40.3,114.61,81.34c6.13,12.41,13.61-0.66,13.61-0.66l13.92-42.9C585.96,599.07,568.77,581.83,549.75,568.08z"/>
<path class="st0" d="M279.97,370.01h42.91c29.88-18.18,52.3-50.76,62.39-83.87c10.05-32.98,10.6-74.45-5.65-105.69l-34.1-24.79
	c0,0-12.15-7.9-12.15,9.65c3.32,33.89,0.99,69.2-8.93,101.44c-10.18,33.07-27.42,65.75-52.06,90.39
	C260.37,369.16,279.97,370.01,279.97,370.01z"/>
<path class="st0" d="M881.94,545.66c-24.98-2.87-47.5,8.97-66.98,23.43c-18.6,13.8-35.02,31.06-39.56,54.53l14.19,43.77
	c0,0,9.38,5.69,11.96,1.46c26.02-42.51,68.27-73.08,116.85-84.45c12.39,0,3.2-9.9,3.2-9.9L881.94,545.66z"/>
<path class="st0" d="M748.74,631.38c-17.9-16.25-41.85-20.14-65.24-20.13h-0.2h-0.05c-23.84,0.02-48.19,4.08-66.2,20.95
	l-13.45,41.46c0,0-6.33,16.22,9.38,9.95c22.26-9.12,46.29-14.04,70.33-14.08h0.14c24.46,0.01,48.87,5.08,71.46,14.47
	c12.6,5.42,7.9-9.22,7.9-9.22L748.74,631.38z"/>
<path class="st0" d="M137.49,370.01h81.12c19.18-12.98,34.89-32.18,48.14-50.93c13.84-19.59,25.8-41.16,32.31-64.36
	c6.76-24.06,8.51-49.6,7.41-74.49c-0.94-21.05-3.75-42.13-11.93-61.64l-61.95-45.05c0,0-14.38-6.74-14.38,6.01
	c4.02,23.09,5.38,46.65,5.03,70.06c-0.41,27.66-2.3,56.79-10.78,83.3c-8.43,26.19-23.63,50.72-39.16,73.24
	c-12.43,18.03-25.99,35.5-41.5,51.01C119.09,369.88,137.49,370.01,137.49,370.01z"/>
<path class="st0" d="M465.69,450.88c-7.58-21.67-19.25-42.03-40.16-53.11h-43.34c0,0-15.54,3.73-2.05,17.22
	c13.79,17.27,24.59,36.97,31.49,57.94c7.41,22.6,12.12,46.89,8.64,70.42c-1.9,12.85,13.23,4.8,13.23,4.8l34.92-25.39
	C478.66,499.46,473.8,474.05,465.69,450.88z"/>
<path class="st0" d="M296.37,504.77c-8.58-23.26-22-44.78-37.34-64.17c-12.26-15.5-27.28-33.85-45.33-42.83c0,0,0,0-0.01,0h-78.05
	c0,0-15.68,4.35-6.2,13.83c21.77,21.36,40.49,46.07,56.6,71.78c9.38,14.98,18.16,30.57,24.68,47.03c6,15.18,8.89,31.41,10.95,47.55
	c4.58,36.29,8.37,74.68-0.96,110.25c-4.59,17.5,10.61,6.92,10.61,6.92l67.27-48.9c8.4-22.05,9.7-47.7,9.38-71.04
	C307.65,551.42,304.63,527.18,296.37,504.77z"/>
<path class="st0" d="M318.76,397.77h-41.11c0,0-18.23,2.26-5.65,14.84c22.85,25.88,41.9,56.37,52.6,88.86
	c10.88,33.29,13.48,69.95,10,104.99c-1.56,15.66,10.11,6.25,10.12,6.25l38.24-27.8c14.72-34.12,12.92-76.57-0.36-110.78
	C370.82,443.81,348.21,412.93,318.76,397.77z"/>
<path class="st0" d="M607.98,570.26l41.44-127.74c0-9.25-1.03-11.32-7.86-11.32l-107.22,77.96c0,0-15.35,14.1-2.09,16.98
	c12,4.99,23.21,11.83,33.76,19.46c10.62,7.68,21.76,15.48,29.32,26.21C603.64,583.6,607.98,570.26,607.98,570.26z"/>
<path class="st0" d="M1075.94,768h111.81l-16.13-11.73C1139.71,752.14,1106.54,758.88,1075.94,768z"/>
<path class="st0" d="M1314.98,92.28c0.87,31.1,5.42,62.57,16.7,91.7c8.66,22.36,20.56,43.46,34.32,63.15V0h-42.92
	C1316.78,30.4,1314.12,61.58,1314.98,92.28z"/>
<path class="st0" d="M51.38,676.52c-0.88-31.22-5.46-62.81-16.81-92.04C25.86,562.02,13.85,540.84,0,521.09V768h43.45
	C49.63,737.86,52.24,706.96,51.38,676.52z"/>
<path class="st0" d="M1316.22,688.84c0.5,26.59,3.68,53.17,9.4,79.16H1366V518.53c-15.84,23.09-29.4,48.14-37.78,74.88
	C1318.6,624.09,1315.63,656.81,1316.22,688.84z"/>
<path class="st0" d="M1234,397.78h-85.86c-19.53,12.87-35.5,32.46-48.88,51.37c-13.84,19.55-25.79,41.06-32.34,64.2
	c-6.66,23.51-8.49,48.45-7.59,72.8c0.75,20.36,2.31,44.05,11.6,62.62l70.56,51.3c0,0,8.91,6.71,7.02-5.95
	c-4.88-25.37-6.4-51.39-5.89-77.18c0.53-27.11,2.51-55.59,10.83-81.57c8.64-26.78,24.33-51.84,40.34-74.79
	c12.93-18.52,27.28-36.21,43.28-52.21C1245.05,400.38,1234,397.78,1234,397.78z"/>
<path class="st0" d="M1091.76,397.77h-47.99c-29.63,17.66-51.98,49.7-62.43,82.16c-10.74,33.33-11.51,75.17,4.6,107.03l40.4,29.38
	c0,0,9.23,6.47,7.27-3.61c-4.86-37.49-3.02-77.34,8.5-113.23c10.65-32.98,28.25-65.34,52.91-89.99
	C1104.69,399.83,1091.76,397.77,1091.76,397.77z"/>
<path class="st0" d="M1294.43,0h-59.79l-47.71,34.69c-13.77,29.97-17.19,64.66-17.69,97.26c-0.26,17.15,0.51,34.35,2.46,51.4
	c1.58,13.76,3.61,27.89,8.33,40.98c10.61,29.41,29.31,56.88,48.49,81.33c19.47,24.83,42.54,49.84,71.01,64.36H1366v-77.32
	c-37.58-44.83-66.01-96.89-74.88-155.28C1284.26,92.24,1285.24,45.12,1294.43,0z"/>
<path class="st0" d="M1180.13,284.92c-9.37-14.99-18.14-30.59-24.63-47.06c-5.97-15.13-8.84-31.29-10.88-47.37
	c-4.54-36.06-4.06-73.41,0.88-109.64c2.12-15.56-9.43-9.19-9.43-9.19l-67.99,49.43c-8.61,21.66-9.96,47.11-9.81,70.15
	c0.16,23.71,2.96,47.93,10.9,70.38c8.26,23.33,21.53,44.95,36.68,64.41c12.48,16.03,27.49,34.24,45.7,43.98h83.15
	c0,0,16.63,1.3,4.83-10.49C1217.03,337.03,1196.92,311.78,1180.13,284.92z"/>
<path class="st0" d="M49.47,78.14C48.86,51.88,45.63,25.65,39.92,0H0v249.83c16.08-23.52,29.84-49.1,38.11-76.41
	C47.41,142.72,50.22,110.1,49.47,78.14z"/>
<path class="st0" d="M798.7,546.59c14.95-11.06,31.26-20.64,49.3-25.6l-118.67-86.27c-9.26,0-11.97,2.14-11.97,10.03l44.99,138.69
	C771.97,568.84,784.7,556.95,798.7,546.59z"/>
<path class="st0" d="M683.24,583.49h0.26c17.83,0,35.57,2.01,52.36,8.2L689.56,449c-7.52-7.52-7.45-6.87-12.46-1.87L630.1,592.01
	C647.11,585.58,665.12,583.51,683.24,583.49z"/>
<path class="st0" d="M814.76,198.57c19.64,14.55,42.36,26.42,67.53,23.3l36.37-26.44c0,0,11.2-12.16-0.64-12.16
	c-49.39-10.64-98-37.58-116.42-83.86c-6.35-15.95-10.34-4.17-10.34-4.17l-16.01,49.35C779.95,167.81,796.3,184.89,814.76,198.57z"/>
<path class="st0" d="M872.75,321.88c-3.81-11.64-8.01-23.55-8.01-35.77c0-18.54-14.9-6.33-14.9-6.33l-106.2,77.21
	c-6.81,6.8-3.66,10.49,1.89,13.03h151.99C886.01,355.81,878.42,339.2,872.75,321.88z"/>
<path class="st0" d="M689.06,320.32l42.06-129.64c0,0,4.45-15.63-6.2-11.24c-13.62,3.61-27.74,4.85-41.89,4.86
	c-12.67,0-26.06,1.23-37.63-3.79c-15.75-6.84-9.62,12.83-9.62,12.83l40.98,126.29C682.47,325.32,684.01,325.38,689.06,320.32z"/>
<path class="st0" d="M896.8,397.77H751.09c-10.41,3.93-8.68,8.21-4.7,15.02l118.31,86.02c-1.07-18.92,3.04-37.78,8.97-55.65
	C879.03,426.91,886.19,411.28,896.8,397.77z"/>
<path class="st0" d="M1224.86,464.96c-17.78,23.68-35.91,50.46-45,78.91c-9.61,29.63-10.35,63.56-9.39,94.42
	c1.01,32.4,4.9,67.37,19.94,96.6v0c0.17,0.34,0.26,0.7,0.41,1.04l44.11,32.07h62.31c-9.33-45.47-11.74-92.66-5.34-138.23
	c8.31-59.06,36.43-111.74,74.1-157.23v-74.77h-71.29C1266.73,413.97,1244.08,439.37,1224.86,464.96z"/>
<path class="st0" d="M900.44,317.14c7.5,21.5,19,41.73,39.65,52.88h46.91c0,0,14.02-0.6,5.55-9.07
	c-18.03-18.03-30.09-41.58-38.02-65.8c-7.22-22.09-8.69-45.57-8.69-68.82c0-14.27-12.01-7.61-12.01-7.61L898,244.76
	C887.48,268.18,892.29,293.78,900.44,317.14z"/>
<path class="st0" d="M627.09,360.38L510.9,275.9c0,0-9.73-5.56-9.73,7.21c-0.94,14.2-4.36,28.24-8.82,41.71
	c-3.54,10.73-7.95,21.12-13.42,30.93c-8.86,15.89,13.34,14.27,13.34,14.27h129.4C631.74,367.35,632.27,365.55,627.09,360.38z"/>
<path class="st0" d="M385.89,370.02h42.43c20.44-12.18,31.19-33.63,38.24-55.57c7.48-23.32,10.96-48.37-0.4-71.07l-31.96-23.24
	c0,0-15.19-10.39-15.19,3.16c4.18,47.9-10.46,95.84-40.54,133.25C367.23,367.78,385.89,370.02,385.89,370.02z"/>
<path class="st0" d="M493.21,397.77c0,0-22.67,1.16-11.97,19.41c4.95,9.19,8.86,18.94,12.14,28.93c4.15,12.65,8.36,25.7,8.36,39.02
	c0,14.87,12.37,4.42,12.36,4.42l109.55-79.65c4.92-4.92,3.23-10.17-3.36-12.14H493.21z"/>
<path class="st0" d="M758.54,196.11l-41.86,129.02c0,7.95,1.43,13.21,9.97,9.9l108.64-78.98c0,0,12.7-10.69-0.13-13.73
	c-12.46-5.04-24.06-12.09-34.96-20c-10.64-7.71-20.04-17.01-29.35-26.32C758.94,184.07,758.54,196.11,758.54,196.11z"/>
<path class="st0" d="M447.81,195.72l35.96,26.15c25.17,3.12,47.89-8.74,67.53-23.29c18.46-13.67,34.83-30.75,39.5-54l-13.28-40.93
	c0,0-9.38-15.56-15.04-1.16c-25.38,39.29-64.87,67.87-110.18,79.6C432.14,184.76,447.81,195.72,447.81,195.72z"/>
<path class="st0" d="M617.2,136.01c17.98,16.58,42.18,20.54,65.83,20.54c23.65,0,47.84-3.96,65.83-20.53l13.55-41.77
	c0,0,1.85-14.03-11.36-9.1c-43.56,16.99-92.23,17.06-135.8,0.1c-16.59-7.81-10.56,12.23-10.56,12.23L617.2,136.01z"/>
<path class="st0" d="M567.54,221.09c-11.39,8.41-23.37,16.44-36.68,21.25c-12.21,4.41-2.16,12.19-2.16,12.19l111.41,80.99
	c6.27,0,10.38,2.47,10.38-7.01l-42.26-130.26c0,0-5.84-16.26-13.34-2.01C586.85,205.6,577.49,213.73,567.54,221.09z"/>
<path class="st0" d="M1291.9,629.77c-6.4,45.56-3.99,92.76,5.34,138.23h28.38c-5.73-25.99-8.91-52.57-9.4-79.16
	c-0.59-32.03,2.38-64.74,11.99-95.42c8.38-26.75,21.95-51.79,37.78-74.88v-45.99C1328.33,518.03,1300.21,570.72,1291.9,629.77z"/>
<path class="st0" d="M75.08,630.27C66.05,572.1,37.53,520.24,0,475.61v45.47c13.85,19.76,25.86,40.93,34.57,63.39
	c11.35,29.23,15.93,60.82,16.81,92.04c0.85,30.45-1.76,61.35-7.93,91.48h28.97C82.29,722.99,82.11,675.51,75.08,630.27z"/>
<path class="st0" d="M1291.12,137.42c8.87,58.39,37.3,110.44,74.88,155.28v-45.56c-13.76-19.7-25.66-40.79-34.32-63.15
	c-11.28-29.13-15.84-60.59-16.7-91.7c-0.86-30.71,1.8-61.89,8.1-92.28h-28.65C1285.24,45.12,1284.26,92.24,1291.12,137.42z"/>
<path class="st1" d="M1228.53,305.66c-19.18-24.45-37.88-51.92-48.49-81.33c-4.72-13.09-6.75-27.22-8.33-40.98
	c-1.96-17.04-2.73-34.24-2.46-51.4c0.5-32.6,3.92-67.3,17.69-97.26L1234.64,0h-47.19l-14.99,10.9c-31.56,4.49-64.57-2.11-94.88-10.9
	h-77.29c15.62,7.91,32.13,14.33,48.49,19.97c21.62,7.46,43.86,14.22,66.62,16.94c16.96,2.03,4.66,12.09,4.66,12.09l-67.05,48.74
	c-21.75,2.29-45.3-3.86-65.92-10.18c-23.34-7.16-46.47-17.1-66.3-31.51c-19.03-13.75-35.06-31.71-48.74-50.68
	c-1.27-1.76-2.54-3.56-3.81-5.37h-32.96c0.1,0.19,0.19,0.37,0.29,0.57c14.93,31.4,41,57.67,68.93,77.95
	c28.78,20.83,63.52,34.51,98.46,41.94c13.41,0,1.86,12.33,1.86,12.33l-36.45,26.5c-34.96,4.44-73.24-8.7-101.35-29.1
	c-27.93-20.24-52.08-52.23-59.02-86.5L821.6,1.72c0,0,0.32-0.73,0.89-1.72h-29.5l-11.4,35.14c-25.74,23.68-64.08,35.39-98.56,35.37
	c-34.48,0.02-72.83-11.69-98.56-35.38L573.07,0h-29.89c0.81,1.01,1.3,1.78,1.3,1.78l13.6,41.93c-6.81,33.65-30.27,65.07-57.42,85.32
	c-28.33,21.12-67.37,34.79-102.96,30.26l-34.47-25.07c0,0-14.35-13.81,0.1-13.81c36.26,0,70.87-21.54,99.8-43.03
	C490.51,57.04,513.38,29.58,530.84,0H497.8c-0.58,0.84-1.16,1.68-1.75,2.51c-14.1,20.09-30.81,39.09-50.77,53.54
	c-19.13,13.91-41.35,23.63-63.82,30.73c-21.3,6.73-45.81,13.32-68.36,11l-61.4-44.64c0,0-14.76-13.16,2.42-16.85
	c21.53-4.62,43.13-9.37,63.87-16.57c16.1-5.58,32.54-11.88,48.05-19.73H288.5c-30.35,8.84-63.35,15.39-94.89,10.9L178.61,0h-47.19
	l43.03,31.28c1.98,6.23,5.53,12.07,7.72,18.29c2.8,7.93,4.99,16.08,6.74,24.3c3.57,16.7,5.42,33.76,6.2,50.81
	c1.46,31.61,0.51,65.33-7.96,96.02c-7.74,28.05-25.51,54.52-42.43,77.81c-19.11,26.32-41.58,52.21-69.32,69.72
	c-0.96,0.61-1.94,1.2-2.92,1.79H0v27.75h65.41c12.73,7.61,24.6,15.29,35.68,25.28c12.37,11.15,23.62,23.53,34.04,36.52
	c20.01,24.92,39.2,52.95,50.54,83.02c4.89,12.97,7.03,27,8.69,40.69c2.06,17.04,2.9,34.23,2.73,51.39
	c-0.33,32.73-3.6,67.51-17.03,97.75L131.13,768h47.2l14.39-10.46c31.66-4.91,65.05,1.76,95.48,10.46h77.73
	c-15.54-7.83-31.93-14.19-48.18-19.78c-22.58-7.77-45.93-13.97-69.63-17.32c-16.38,0-1.45-12.59-1.45-12.59l65.77-47.82
	c21.25-2.7,44.72,3.44,64.92,9.47c23.47,6.98,46.69,16.78,66.77,30.95c19.16,13.53,35.31,31.27,49.13,50.11
	c1.67,2.28,3.35,4.61,5.02,6.98h33.26c-11.05-33.16-41.45-58.08-69.63-78.51c-28.34-20.46-62.62-34.18-97.08-41.57
	c-15.81-2.56-2.59-13.62-2.59-13.62l34.96-25.42c35.1-4.9,73.91,8.46,102.14,28.9c27.8,20.11,51.68,51.71,58.96,85.69l-12.95,39.91
	c0,0-0.7,2.13-1.82,4.62H573l11.27-34.72c25.62-24.13,64.45-35.98,99.09-36h0.09h0.02c34.28-0.02,72.11,11.55,97.93,34.77
	L793.06,768h29.18l-14.05-43.29c6.47-33.93,30.21-65.76,57.47-86.12c28.2-21.06,66.76-34.58,102.2-30.44l37.88,27.54
	c0,0,12.47,8.29-0.6,10.91c-36.19,7.27-72.43,21.66-101.9,43.6c-27.45,20.44-50.41,48.07-67.86,77.81h32.99
	c0.28-0.41,0.56-0.82,0.84-1.23c13.97-20.25,30.57-39.4,50.37-54.15c18.99-14.15,41.11-24.07,63.54-31.35
	c21.63-7.02,46.29-13.66,69.25-11.69l67.17,48.83c0,0,11.07,8.82-2.23,11.88c-23.75,5.46-47.88,9.99-70.81,18.09
	c-15.77,5.57-31.97,11.81-47.2,19.61h76.63c30.61-9.12,63.77-15.86,95.68-11.73l16.13,11.73h47.18l-44.11-32.07
	c-0.14-0.35-0.23-0.71-0.41-1.04v0c-15.04-29.23-18.92-64.2-19.94-96.6c-0.96-30.85-0.22-64.78,9.39-94.42
	c9.09-28.44,27.22-55.23,45-78.91c19.21-25.59,41.86-50.99,69.84-67.18H1366v-27.76h-66.46
	C1271.07,355.5,1248,330.49,1228.53,305.66z M983.64,182.49l36.97-26.87c0,0,12.87-2.31,10.82,8.74
	c-6.27,33.79-0.41,69.9,10.16,102.34c11.32,34.48,30.9,67.77,56.69,93.57c9.54,9.54-6.51,9.76-6.51,9.76h-45.14
	c-29.62-15.74-52.26-46.96-63.76-77.88C970.24,258.17,968.71,216.05,983.64,182.49z M945.83,226.32c0,23.26,1.47,46.73,8.69,68.82
	c7.92,24.22,19.99,47.77,38.02,65.8c8.46,8.47-5.55,9.07-5.55,9.07h-46.91c-20.65-11.15-32.15-31.38-39.65-52.88
	c-8.15-23.35-12.96-48.96-2.44-72.38l35.82-26.05C933.82,218.71,945.83,212.05,945.83,226.32z M864.69,498.81l-118.31-86.02
	c-3.97-6.81-5.7-11.09,4.7-15.02H896.8c-10.61,13.51-17.77,29.14-23.14,45.39C867.73,461.03,863.62,479.89,864.69,498.81z
	 M677.11,447.13c5.01-5,4.94-5.65,12.46,1.87l46.3,142.7c-16.79-6.19-34.53-8.2-52.36-8.2h-0.26c-18.12,0.02-36.13,2.09-53.14,8.52
	L677.11,447.13z M676.77,319.62l-40.98-126.29c0,0-6.14-19.68,9.62-12.83c11.56,5.02,24.96,3.79,37.63,3.79
	c14.15,0,28.27-1.24,41.89-4.86c10.66-4.39,6.2,11.24,6.2,11.24l-42.06,129.64C684.01,325.38,682.47,325.32,676.77,319.62z
	 M717.37,444.75c0-7.89,2.71-10.03,11.97-10.03L848,520.99c-18.04,4.96-34.35,14.54-49.3,25.6c-14,10.36-26.73,22.25-36.34,36.85
	L717.37,444.75z M745.54,370.02c-5.55-2.54-8.7-6.24-1.89-13.03l106.2-77.21c0,0,14.9-12.21,14.9,6.33
	c0,12.22,4.21,24.13,8.01,35.77c5.66,17.32,13.26,33.93,24.78,48.14H745.54z M791.27,95.23c0,0,3.99-11.77,10.34,4.17
	c18.42,46.29,67.04,73.22,116.42,83.86c11.84,0,0.64,12.16,0.64,12.16l-36.37,26.44c-25.16,3.12-47.89-8.75-67.53-23.3
	c-18.46-13.68-34.81-30.76-39.5-53.99L791.27,95.23z M800.2,222.31c10.9,7.91,22.5,14.96,34.96,20c12.82,3.05,0.13,13.73,0.13,13.73
	l-108.64,78.98c-8.53,3.31-9.97-1.94-9.97-9.9l41.86-129.02c0,0,0.4-12.04,12.31-0.12C780.17,205.3,789.57,214.6,800.2,222.31z
	 M615.26,85.25c43.57,16.95,92.24,16.89,135.8-0.1c13.21-4.93,11.36,9.1,11.36,9.1l-13.55,41.77
	c-17.99,16.58-42.18,20.53-65.83,20.53c-23.66,0-47.85-3.96-65.83-20.54l-12.5-38.53C604.7,97.48,598.67,77.44,615.26,85.25z
	 M608.22,198.25l42.26,130.26c0,9.47-4.11,7.01-10.38,7.01L528.7,254.53c0,0-10.05-7.78,2.16-12.19
	c13.31-4.81,25.29-12.83,36.68-21.25c9.96-7.36,19.32-15.5,27.33-24.85C602.37,181.99,608.22,198.25,608.22,198.25z M621.68,370.02
	h-129.4c0,0-22.2,1.62-13.34-14.27c5.47-9.81,9.88-20.2,13.42-30.93c4.45-13.48,7.87-27.51,8.82-41.71c0-12.78,9.73-7.21,9.73-7.21
	l116.19,84.48C632.27,365.55,631.74,367.35,621.68,370.02z M623.66,409.91L514.1,489.56c0,0-12.36,10.44-12.36-4.42
	c0-13.33-4.22-26.37-8.36-39.02c-3.28-9.99-7.19-19.74-12.14-28.93c-10.7-18.25,11.97-19.41,11.97-19.41h127.08
	C626.88,399.74,628.57,404.99,623.66,409.91z M452.3,182.09c45.31-11.73,84.8-40.3,110.18-79.6c5.66-14.4,15.04,1.16,15.04,1.16
	l13.28,40.93c-4.67,23.24-21.03,40.33-39.5,54c-19.65,14.55-42.36,26.41-67.53,23.29l-35.96-26.15
	C447.81,195.72,432.14,184.76,452.3,182.09z M419.01,223.3c0-13.56,15.19-3.16,15.19-3.16l31.96,23.24
	c11.35,22.7,7.88,47.75,0.4,71.07c-7.04,21.94-17.8,43.39-38.24,55.57h-42.43c0,0-18.66-2.23-7.42-13.47
	C408.55,319.13,423.19,271.19,419.01,223.3z M324.44,266.75c9.92-32.24,12.25-67.55,8.93-101.44c0-17.55,12.15-9.65,12.15-9.65
	l34.1,24.79c16.25,31.24,15.7,72.71,5.65,105.69c-10.09,33.11-32.51,65.7-62.39,83.87h-42.91c0,0-19.6-0.86-7.58-12.87
	C297.02,332.5,314.26,299.82,324.44,266.75z M131.8,357.17c15.51-15.51,29.07-32.98,41.5-51.01c15.53-22.52,30.73-47.04,39.16-73.24
	c8.48-26.51,10.37-55.65,10.78-83.3c0.35-23.41-1.01-46.97-5.03-70.06c0-12.75,14.38-6.01,14.38-6.01l61.95,45.05
	c8.18,19.51,10.99,40.59,11.93,61.64c1.1,24.89-0.64,50.43-7.41,74.49c-6.52,23.2-18.47,44.77-32.31,64.36
	c-13.25,18.75-28.97,37.95-48.14,50.93h-81.12C137.49,370.01,119.09,369.88,131.8,357.17z M298.59,646.24l-67.27,48.9
	c0,0-15.2,10.58-10.61-6.92c9.33-35.57,5.54-73.96,0.96-110.25c-2.06-16.14-4.95-32.37-10.95-47.55
	c-6.52-16.46-15.29-32.05-24.68-47.03c-16.11-25.72-34.83-50.42-56.6-71.78c-9.48-9.48,6.2-13.83,6.2-13.83h78.05c0,0,0,0,0.01,0
	c18.05,8.97,33.07,27.33,45.33,42.83c15.34,19.38,28.77,40.91,37.34,64.17c8.26,22.4,11.27,46.65,11.6,70.43
	C308.29,598.55,307,624.19,298.59,646.24z M382.96,584.91l-38.24,27.8c0,0-11.68,9.4-10.12-6.25c3.48-35.04,0.88-71.7-10-104.99
	c-10.7-32.49-29.75-62.97-52.6-88.86c-12.58-12.58,5.65-14.84,5.65-14.84h41.11c29.44,15.16,52.06,46.04,63.84,76.36
	C395.88,508.34,397.68,550.79,382.96,584.91z M420.28,543.35c3.47-23.54-1.24-47.82-8.64-70.42c-6.89-20.97-17.7-40.67-31.49-57.94
	c-13.49-13.49,2.05-17.22,2.05-17.22h43.34c20.91,11.08,32.58,31.43,40.16,53.11c8.11,23.17,12.97,48.58,2.73,71.89l-34.92,25.39
	C433.51,548.16,418.38,556.2,420.28,543.35z M577.01,665.71c0,0-7.49,13.07-13.61,0.66c-26.18-41.03-67.49-70.24-114.61-81.34
	c-14.45-3.86-1.27-12.76-1.27-12.76l35.89-26.09c24.59-3.27,46.93,7.84,66.34,21.89c19.02,13.74,36.21,30.98,41.18,54.72
	L577.01,665.71z M595.33,571.81c-7.56-10.73-18.7-18.53-29.32-26.21c-10.56-7.64-21.76-14.47-33.76-19.46
	c-13.26-2.89,2.09-16.98,2.09-16.98l107.22-77.96c6.83,0,7.86,2.07,7.86,11.32l-41.44,127.74
	C607.98,570.26,603.64,583.6,595.33,571.81z M754.92,684c-22.58-9.39-46.99-14.46-71.46-14.47h-0.14
	c-24.04,0.04-48.07,4.96-70.33,14.08c-15.71,6.27-9.38-9.95-9.38-9.95l13.45-41.46c18.01-16.87,42.36-20.93,66.2-20.95h0.05h0.2
	c23.39-0.01,47.34,3.88,65.24,20.13l14.08,43.4C762.82,674.78,767.52,689.42,754.92,684z M918.41,584.4
	c-48.58,11.37-90.84,41.94-116.85,84.45c-2.59,4.22-11.96-1.46-11.96-1.46l-14.19-43.77c4.53-23.47,20.95-40.73,39.56-54.53
	c19.48-14.45,42-26.3,66.98-23.43l39.67,28.84C921.61,574.5,930.8,584.4,918.41,584.4z M947.01,546.81c2.16,13.56-8.1,5.97-8.1,5.97
	l-39.37-28.63c-11.08-22.59-7.55-47.45-0.09-70.58c7.12-22.13,18.02-43.66,38.75-55.8h49.49c0,0,12.78,0.17,3.43,9.52
	C955.29,443.12,938.94,496.34,947.01,546.81z M1042.1,499.51c-11.52,35.89-13.36,75.74-8.5,113.23c1.96,10.08-7.27,3.61-7.27,3.61
	l-40.4-29.38c-16.1-31.86-15.34-73.7-4.6-107.03c10.45-32.46,32.8-64.5,62.43-82.16h47.99c0,0,12.93,2.06,3.25,11.75
	C1070.35,434.17,1052.75,466.53,1042.1,499.51z M1237.07,408.36c-16,16-30.35,33.69-43.28,52.21
	c-16.01,22.94-31.7,48.01-40.34,74.79c-8.32,25.98-10.3,54.45-10.83,81.57c-0.51,25.78,1.01,51.8,5.89,77.18
	c1.89,12.67-7.02,5.95-7.02,5.95l-70.56-51.3c-9.29-18.57-10.85-42.26-11.6-62.62c-0.89-24.35,0.94-49.29,7.59-72.8
	c6.55-23.14,18.5-44.65,32.34-64.2c13.39-18.9,29.35-38.5,48.88-51.37H1234C1234,397.78,1245.05,400.38,1237.07,408.36z
	 M1234.7,370.02h-83.15c-18.21-9.74-33.22-27.95-45.7-43.98c-15.14-19.46-28.41-41.08-36.68-64.41
	c-7.94-22.44-10.74-46.67-10.9-70.38c-0.15-23.04,1.2-48.5,9.81-70.15l67.99-49.43c0,0,11.55-6.37,9.43,9.19
	c-4.94,36.23-5.42,73.58-0.88,109.64c2.04,16.08,4.91,32.24,10.88,47.37c6.5,16.47,15.26,32.07,24.63,47.06
	c16.79,26.86,36.9,52.11,59.4,74.61C1251.32,371.32,1234.7,370.02,1234.7,370.02z"/>
<path class="st0" d="M73.88,138.83C80.3,93.06,77.52,45.71,68.25,0H39.92c5.71,25.65,8.93,51.88,9.55,78.14
	c0.75,31.96-2.06,64.58-11.36,95.28C29.84,200.73,16.08,226.31,0,249.83v46.09C37.56,250.45,65.61,197.81,73.88,138.83z"/>
</svg>
